<mxfile host="app.diagrams.net" modified="2022-06-08T10:48:56.773Z" agent="5.0 (Windows NT 10.0; Win64; x64) AppleWebKit/537.36 (KHTML, like Gecko) Chrome/102.0.0.0 Safari/537.36" etag="48HMk6S-mYcZaYqCP3Y0" version="19.0.0" type="github">
  <diagram id="3NpAx-WGTY1Oh0auyHFf" name="第 1 页">
    <mxGraphModel dx="1221" dy="634" grid="0" gridSize="10" guides="1" tooltips="1" connect="1" arrows="1" fold="1" page="1" pageScale="1" pageWidth="827" pageHeight="1169" math="0" shadow="0">
      <root>
        <mxCell id="0" />
        <mxCell id="1" parent="0" />
        <mxCell id="iaPxIylUaVQC6Qq7qG04-1" style="edgeStyle=orthogonalEdgeStyle;rounded=0;orthogonalLoop=1;jettySize=auto;html=1;entryX=0.5;entryY=0;entryDx=0;entryDy=0;" edge="1" parent="1" source="iaPxIylUaVQC6Qq7qG04-2" target="iaPxIylUaVQC6Qq7qG04-4">
          <mxGeometry relative="1" as="geometry" />
        </mxCell>
        <mxCell id="iaPxIylUaVQC6Qq7qG04-2" value="开始" style="strokeWidth=2;html=1;shape=mxgraph.flowchart.terminator;whiteSpace=wrap;" vertex="1" parent="1">
          <mxGeometry x="328" y="25" width="64" height="37" as="geometry" />
        </mxCell>
        <mxCell id="iaPxIylUaVQC6Qq7qG04-3" style="edgeStyle=orthogonalEdgeStyle;rounded=0;orthogonalLoop=1;jettySize=auto;html=1;entryX=0.5;entryY=0;entryDx=0;entryDy=0;entryPerimeter=0;" edge="1" parent="1" source="iaPxIylUaVQC6Qq7qG04-4" target="iaPxIylUaVQC6Qq7qG04-9">
          <mxGeometry relative="1" as="geometry" />
        </mxCell>
        <mxCell id="iaPxIylUaVQC6Qq7qG04-4" value="用户请求修改密码" style="rounded=1;whiteSpace=wrap;html=1;absoluteArcSize=1;arcSize=14;strokeWidth=2;" vertex="1" parent="1">
          <mxGeometry x="310" y="91" width="100" height="32" as="geometry" />
        </mxCell>
        <mxCell id="iaPxIylUaVQC6Qq7qG04-7" style="edgeStyle=orthogonalEdgeStyle;rounded=0;orthogonalLoop=1;jettySize=auto;html=1;entryX=0;entryY=0.5;entryDx=0;entryDy=0;entryPerimeter=0;" edge="1" parent="1" source="iaPxIylUaVQC6Qq7qG04-9" target="iaPxIylUaVQC6Qq7qG04-10">
          <mxGeometry relative="1" as="geometry" />
        </mxCell>
        <mxCell id="iaPxIylUaVQC6Qq7qG04-8" style="edgeStyle=orthogonalEdgeStyle;rounded=0;orthogonalLoop=1;jettySize=auto;html=1;entryX=0.5;entryY=0;entryDx=0;entryDy=0;entryPerimeter=0;" edge="1" parent="1" source="iaPxIylUaVQC6Qq7qG04-9" target="iaPxIylUaVQC6Qq7qG04-20">
          <mxGeometry relative="1" as="geometry">
            <mxPoint x="360" y="253" as="targetPoint" />
          </mxGeometry>
        </mxCell>
        <mxCell id="iaPxIylUaVQC6Qq7qG04-9" value="jwt是否有效" style="strokeWidth=2;html=1;shape=mxgraph.flowchart.decision;whiteSpace=wrap;" vertex="1" parent="1">
          <mxGeometry x="310" y="156" width="100" height="62" as="geometry" />
        </mxCell>
        <mxCell id="iaPxIylUaVQC6Qq7qG04-10" value="结束" style="strokeWidth=2;html=1;shape=mxgraph.flowchart.terminator;whiteSpace=wrap;" vertex="1" parent="1">
          <mxGeometry x="480" y="168.5" width="64" height="37" as="geometry" />
        </mxCell>
        <mxCell id="iaPxIylUaVQC6Qq7qG04-11" value="否" style="text;html=1;align=center;verticalAlign=middle;resizable=0;points=[];autosize=1;strokeColor=none;fillColor=none;" vertex="1" parent="1">
          <mxGeometry x="429" y="166" width="22" height="18" as="geometry" />
        </mxCell>
        <mxCell id="iaPxIylUaVQC6Qq7qG04-16" style="edgeStyle=orthogonalEdgeStyle;rounded=0;orthogonalLoop=1;jettySize=auto;html=1;entryX=0;entryY=0.5;entryDx=0;entryDy=0;entryPerimeter=0;" edge="1" parent="1" source="iaPxIylUaVQC6Qq7qG04-17" target="iaPxIylUaVQC6Qq7qG04-18">
          <mxGeometry relative="1" as="geometry" />
        </mxCell>
        <mxCell id="iaPxIylUaVQC6Qq7qG04-17" value="将结果返回前端" style="rounded=1;whiteSpace=wrap;html=1;absoluteArcSize=1;arcSize=14;strokeWidth=2;" vertex="1" parent="1">
          <mxGeometry x="310" y="429" width="100" height="32" as="geometry" />
        </mxCell>
        <mxCell id="iaPxIylUaVQC6Qq7qG04-18" value="结束" style="strokeWidth=2;html=1;shape=mxgraph.flowchart.terminator;whiteSpace=wrap;" vertex="1" parent="1">
          <mxGeometry x="480" y="426.5" width="64" height="37" as="geometry" />
        </mxCell>
        <mxCell id="iaPxIylUaVQC6Qq7qG04-19" value="是" style="text;html=1;align=center;verticalAlign=middle;resizable=0;points=[];autosize=1;strokeColor=none;fillColor=none;" vertex="1" parent="1">
          <mxGeometry x="358" y="222" width="22" height="18" as="geometry" />
        </mxCell>
        <mxCell id="iaPxIylUaVQC6Qq7qG04-22" style="edgeStyle=orthogonalEdgeStyle;rounded=0;orthogonalLoop=1;jettySize=auto;html=1;entryX=0;entryY=0.5;entryDx=0;entryDy=0;entryPerimeter=0;" edge="1" parent="1" source="iaPxIylUaVQC6Qq7qG04-20" target="iaPxIylUaVQC6Qq7qG04-21">
          <mxGeometry relative="1" as="geometry" />
        </mxCell>
        <mxCell id="iaPxIylUaVQC6Qq7qG04-25" style="edgeStyle=orthogonalEdgeStyle;rounded=0;orthogonalLoop=1;jettySize=auto;html=1;entryX=0.5;entryY=0;entryDx=0;entryDy=0;" edge="1" parent="1" source="iaPxIylUaVQC6Qq7qG04-20" target="iaPxIylUaVQC6Qq7qG04-24">
          <mxGeometry relative="1" as="geometry" />
        </mxCell>
        <mxCell id="iaPxIylUaVQC6Qq7qG04-20" value="旧密码是否正确" style="strokeWidth=2;html=1;shape=mxgraph.flowchart.decision;whiteSpace=wrap;" vertex="1" parent="1">
          <mxGeometry x="303" y="261" width="114" height="59" as="geometry" />
        </mxCell>
        <mxCell id="iaPxIylUaVQC6Qq7qG04-21" value="结束" style="strokeWidth=2;html=1;shape=mxgraph.flowchart.terminator;whiteSpace=wrap;" vertex="1" parent="1">
          <mxGeometry x="480" y="272" width="64" height="37" as="geometry" />
        </mxCell>
        <mxCell id="iaPxIylUaVQC6Qq7qG04-23" value="否" style="text;html=1;align=center;verticalAlign=middle;resizable=0;points=[];autosize=1;strokeColor=none;fillColor=none;" vertex="1" parent="1">
          <mxGeometry x="429" y="272" width="22" height="18" as="geometry" />
        </mxCell>
        <mxCell id="iaPxIylUaVQC6Qq7qG04-26" style="edgeStyle=orthogonalEdgeStyle;rounded=0;orthogonalLoop=1;jettySize=auto;html=1;entryX=0.5;entryY=0;entryDx=0;entryDy=0;" edge="1" parent="1" source="iaPxIylUaVQC6Qq7qG04-24" target="iaPxIylUaVQC6Qq7qG04-17">
          <mxGeometry relative="1" as="geometry" />
        </mxCell>
        <mxCell id="iaPxIylUaVQC6Qq7qG04-24" value="将新密码加密后写入数据库" style="rounded=1;whiteSpace=wrap;html=1;absoluteArcSize=1;arcSize=14;strokeWidth=2;" vertex="1" parent="1">
          <mxGeometry x="310" y="350" width="100" height="32" as="geometry" />
        </mxCell>
        <mxCell id="iaPxIylUaVQC6Qq7qG04-27" value="是" style="text;html=1;align=center;verticalAlign=middle;resizable=0;points=[];autosize=1;strokeColor=none;fillColor=none;" vertex="1" parent="1">
          <mxGeometry x="358" y="323" width="22" height="18" as="geometry" />
        </mxCell>
      </root>
    </mxGraphModel>
  </diagram>
</mxfile>
